<svg width="294" height="294" viewBox="0 0 294 294" fill="none" xmlns="http://www.w3.org/2000/svg">
<path d="M125.002 19.692L139.569 4.74628C145.737 -1.58209 155.711 -1.58209 161.813 4.74628L289.374 135.555C295.542 141.883 295.542 152.117 289.374 158.378L161.813 289.254C155.645 295.582 145.671 295.582 139.569 289.254L125.002 274.308C118.768 267.912 118.899 257.477 125.264 251.216L204.333 173.929H15.7482C7.02109 173.929 0 166.726 0 157.772V136.228C0 127.274 7.02109 120.071 15.7482 120.071H204.333L125.264 42.7838C118.834 36.5228 118.702 26.0877 125.002 19.692Z" fill="white"/>
</svg>
