<svg width="15" height="15" viewBox="0 0 15 15" fill="none" xmlns="http://www.w3.org/2000/svg">
<path d="M0.5 13.1875C0.5 13.9121 1.17188 14.5 2 14.5H13C13.8281 14.5 14.5 13.9121 14.5 13.1875V5.75H0.5V13.1875ZM10.5 7.82812C10.5 7.64766 10.6687 7.5 10.875 7.5H12.125C12.3313 7.5 12.5 7.64766 12.5 7.82812V8.92188C12.5 9.10234 12.3313 9.25 12.125 9.25H10.875C10.6687 9.25 10.5 9.10234 10.5 8.92188V7.82812ZM10.5 11.3281C10.5 11.1477 10.6687 11 10.875 11H12.125C12.3313 11 12.5 11.1477 12.5 11.3281V12.4219C12.5 12.6023 12.3313 12.75 12.125 12.75H10.875C10.6687 12.75 10.5 12.6023 10.5 12.4219V11.3281ZM6.5 7.82812C6.5 7.64766 6.66875 7.5 6.875 7.5H8.125C8.33125 7.5 8.5 7.64766 8.5 7.82812V8.92188C8.5 9.10234 8.33125 9.25 8.125 9.25H6.875C6.66875 9.25 6.5 9.10234 6.5 8.92188V7.82812ZM6.5 11.3281C6.5 11.1477 6.66875 11 6.875 11H8.125C8.33125 11 8.5 11.1477 8.5 11.3281V12.4219C8.5 12.6023 8.33125 12.75 8.125 12.75H6.875C6.66875 12.75 6.5 12.6023 6.5 12.4219V11.3281ZM2.5 7.82812C2.5 7.64766 2.66875 7.5 2.875 7.5H4.125C4.33125 7.5 4.5 7.64766 4.5 7.82812V8.92188C4.5 9.10234 4.33125 9.25 4.125 9.25H2.875C2.66875 9.25 2.5 9.10234 2.5 8.92188V7.82812ZM2.5 11.3281C2.5 11.1477 2.66875 11 2.875 11H4.125C4.33125 11 4.5 11.1477 4.5 11.3281V12.4219C4.5 12.6023 4.33125 12.75 4.125 12.75H2.875C2.66875 12.75 2.5 12.6023 2.5 12.4219V11.3281ZM13 2.25H11.5V0.9375C11.5 0.696875 11.275 0.5 11 0.5H10C9.725 0.5 9.5 0.696875 9.5 0.9375V2.25H5.5V0.9375C5.5 0.696875 5.275 0.5 5 0.5H4C3.725 0.5 3.5 0.696875 3.5 0.9375V2.25H2C1.17188 2.25 0.5 2.83789 0.5 3.5625V4.875H14.5V3.5625C14.5 2.83789 13.8281 2.25 13 2.25Z" fill="#007BFF"/>
</svg>
