<svg width="51" height="51" viewBox="0 0 51 51" fill="none" xmlns="http://www.w3.org/2000/svg">
<mask id="path-2-inside-1_375_305" fill="white">
<path d="M24.7188 27.0625C24.7188 27.2697 24.6364 27.4684 24.4899 27.6149C24.3434 27.7614 24.1447 27.8438 23.9375 27.8438H14.5625C14.3553 27.8438 14.1566 27.7614 14.0101 27.6149C13.8636 27.4684 13.7812 27.2697 13.7812 27.0625C13.7812 26.8553 13.8636 26.6566 14.0101 26.5101C14.1566 26.3636 14.3553 26.2812 14.5625 26.2812H23.9375C24.1447 26.2812 24.3434 26.3636 24.4899 26.5101C24.6364 26.6566 24.7188 26.8553 24.7188 27.0625ZM23.9375 20.0312H14.5625C14.3553 20.0312 14.1566 20.1136 14.0101 20.2601C13.8636 20.4066 13.7812 20.6053 13.7812 20.8125C13.7812 21.0197 13.8636 21.2184 14.0101 21.3649C14.1566 21.5114 14.3553 21.5938 14.5625 21.5938H23.9375C24.1447 21.5938 24.3434 21.5114 24.4899 21.3649C24.6364 21.2184 24.7188 21.0197 24.7188 20.8125C24.7188 20.6053 24.6364 20.4066 24.4899 20.2601C24.3434 20.1136 24.1447 20.0312 23.9375 20.0312ZM45.0312 31.6992V44.25C45.0315 44.3872 44.9955 44.5221 44.927 44.641C44.8585 44.76 44.7599 44.8587 44.6411 44.9274C44.5223 44.9962 44.3875 45.0324 44.2503 45.0324C44.1131 45.0325 43.9782 44.9964 43.8594 44.9277L38.7812 42.0254L33.7031 44.9277C33.5843 44.9964 33.4494 45.0325 33.3122 45.0324C33.175 45.0324 33.0402 44.9962 32.9214 44.9274C32.8026 44.8587 32.704 44.76 32.6355 44.641C32.567 44.5221 32.531 44.3872 32.5312 44.25V38.7812H8.3125C7.6909 38.7812 7.09476 38.5343 6.65522 38.0948C6.21568 37.6552 5.96875 37.0591 5.96875 36.4375V11.4375C5.96875 10.8159 6.21568 10.2198 6.65522 9.78022C7.09476 9.34068 7.6909 9.09375 8.3125 9.09375H42.6875C43.3091 9.09375 43.9052 9.34068 44.3448 9.78022C44.7843 10.2198 45.0312 10.8159 45.0312 11.4375V17.7383C46.0142 18.6162 46.8007 19.6919 47.3391 20.8948C47.8776 22.0977 48.156 23.4008 48.156 24.7188C48.156 26.0367 47.8776 27.3398 47.3391 28.5427C46.8007 29.7456 46.0142 30.8213 45.0312 31.6992ZM38.7812 16.9062C37.2361 16.9062 35.7256 17.3644 34.4409 18.2229C33.1561 19.0813 32.1548 20.3015 31.5634 21.729C30.9721 23.1566 30.8174 24.7274 31.1189 26.2429C31.4203 27.7584 32.1644 29.1504 33.257 30.243C34.3496 31.3356 35.7416 32.0797 37.2571 32.3811C38.7726 32.6826 40.3434 32.5279 41.771 31.9366C43.1985 31.3452 44.4187 30.3439 45.2771 29.0591C46.1356 27.7744 46.5938 26.2639 46.5938 24.7188C46.5938 22.6467 45.7706 20.6596 44.3055 19.1945C42.8404 17.7294 40.8533 16.9062 38.7812 16.9062ZM32.5312 37.2188V31.6992C30.8177 30.1488 29.7371 28.0202 29.4968 25.7219C29.2566 23.4236 29.8737 21.1175 31.2296 19.2463C32.5856 17.3751 34.5849 16.0706 36.8437 15.5832C39.1026 15.0958 41.4619 15.4599 43.4688 16.6055V11.4375C43.4688 11.2303 43.3864 11.0316 43.2399 10.8851C43.0934 10.7386 42.8947 10.6562 42.6875 10.6562H8.3125C8.1053 10.6562 7.90659 10.7386 7.76007 10.8851C7.61356 11.0316 7.53125 11.2303 7.53125 11.4375V36.4375C7.53125 36.6447 7.61356 36.8434 7.76007 36.9899C7.90659 37.1364 8.1053 37.2188 8.3125 37.2188H32.5312ZM43.4688 32.832C42.0448 33.6585 40.4277 34.0938 38.7812 34.0938C37.1348 34.0938 35.5177 33.6585 34.0938 32.832V42.9043L38.3906 40.4473C38.5094 40.3787 38.6441 40.3426 38.7812 40.3426C38.9184 40.3426 39.0531 40.3787 39.1719 40.4473L43.4688 42.9043V32.832Z"/>
</mask>
<path d="M24.7188 27.0625C24.7188 27.2697 24.6364 27.4684 24.4899 27.6149C24.3434 27.7614 24.1447 27.8438 23.9375 27.8438H14.5625C14.3553 27.8438 14.1566 27.7614 14.0101 27.6149C13.8636 27.4684 13.7812 27.2697 13.7812 27.0625C13.7812 26.8553 13.8636 26.6566 14.0101 26.5101C14.1566 26.3636 14.3553 26.2812 14.5625 26.2812H23.9375C24.1447 26.2812 24.3434 26.3636 24.4899 26.5101C24.6364 26.6566 24.7188 26.8553 24.7188 27.0625ZM23.9375 20.0312H14.5625C14.3553 20.0312 14.1566 20.1136 14.0101 20.2601C13.8636 20.4066 13.7812 20.6053 13.7812 20.8125C13.7812 21.0197 13.8636 21.2184 14.0101 21.3649C14.1566 21.5114 14.3553 21.5938 14.5625 21.5938H23.9375C24.1447 21.5938 24.3434 21.5114 24.4899 21.3649C24.6364 21.2184 24.7188 21.0197 24.7188 20.8125C24.7188 20.6053 24.6364 20.4066 24.4899 20.2601C24.3434 20.1136 24.1447 20.0312 23.9375 20.0312ZM45.0312 31.6992V44.25C45.0315 44.3872 44.9955 44.5221 44.927 44.641C44.8585 44.76 44.7599 44.8587 44.6411 44.9274C44.5223 44.9962 44.3875 45.0324 44.2503 45.0324C44.1131 45.0325 43.9782 44.9964 43.8594 44.9277L38.7812 42.0254L33.7031 44.9277C33.5843 44.9964 33.4494 45.0325 33.3122 45.0324C33.175 45.0324 33.0402 44.9962 32.9214 44.9274C32.8026 44.8587 32.704 44.76 32.6355 44.641C32.567 44.5221 32.531 44.3872 32.5312 44.25V38.7812H8.3125C7.6909 38.7812 7.09476 38.5343 6.65522 38.0948C6.21568 37.6552 5.96875 37.0591 5.96875 36.4375V11.4375C5.96875 10.8159 6.21568 10.2198 6.65522 9.78022C7.09476 9.34068 7.6909 9.09375 8.3125 9.09375H42.6875C43.3091 9.09375 43.9052 9.34068 44.3448 9.78022C44.7843 10.2198 45.0312 10.8159 45.0312 11.4375V17.7383C46.0142 18.6162 46.8007 19.6919 47.3391 20.8948C47.8776 22.0977 48.156 23.4008 48.156 24.7188C48.156 26.0367 47.8776 27.3398 47.3391 28.5427C46.8007 29.7456 46.0142 30.8213 45.0312 31.6992ZM38.7812 16.9062C37.2361 16.9062 35.7256 17.3644 34.4409 18.2229C33.1561 19.0813 32.1548 20.3015 31.5634 21.729C30.9721 23.1566 30.8174 24.7274 31.1189 26.2429C31.4203 27.7584 32.1644 29.1504 33.257 30.243C34.3496 31.3356 35.7416 32.0797 37.2571 32.3811C38.7726 32.6826 40.3434 32.5279 41.771 31.9366C43.1985 31.3452 44.4187 30.3439 45.2771 29.0591C46.1356 27.7744 46.5938 26.2639 46.5938 24.7188C46.5938 22.6467 45.7706 20.6596 44.3055 19.1945C42.8404 17.7294 40.8533 16.9062 38.7812 16.9062ZM32.5312 37.2188V31.6992C30.8177 30.1488 29.7371 28.0202 29.4968 25.7219C29.2566 23.4236 29.8737 21.1175 31.2296 19.2463C32.5856 17.3751 34.5849 16.0706 36.8437 15.5832C39.1026 15.0958 41.4619 15.4599 43.4688 16.6055V11.4375C43.4688 11.2303 43.3864 11.0316 43.2399 10.8851C43.0934 10.7386 42.8947 10.6562 42.6875 10.6562H8.3125C8.1053 10.6562 7.90659 10.7386 7.76007 10.8851C7.61356 11.0316 7.53125 11.2303 7.53125 11.4375V36.4375C7.53125 36.6447 7.61356 36.8434 7.76007 36.9899C7.90659 37.1364 8.1053 37.2188 8.3125 37.2188H32.5312ZM43.4688 32.832C42.0448 33.6585 40.4277 34.0938 38.7812 34.0938C37.1348 34.0938 35.5177 33.6585 34.0938 32.832V42.9043L38.3906 40.4473C38.5094 40.3787 38.6441 40.3426 38.7812 40.3426C38.9184 40.3426 39.0531 40.3787 39.1719 40.4473L43.4688 42.9043V32.832Z" fill="#F4AE00"/>
<path d="M45.0312 31.6992L38.3698 24.241L35.0312 27.2228V31.6992H45.0312ZM45.0312 44.25H35.0312V44.2574L35.0313 44.2648L45.0312 44.25ZM43.8594 44.9277L48.8594 36.2675L48.8405 36.2566L48.8215 36.2457L43.8594 44.9277ZM38.7812 42.0254L43.7434 33.3434L38.7812 30.5073L33.8191 33.3434L38.7812 42.0254ZM33.7031 44.9277L28.741 36.2457L28.722 36.2566L28.7031 36.2675L33.7031 44.9277ZM32.5312 44.25L42.5312 44.2648L42.5312 44.2574V44.25H32.5312ZM32.5312 38.7812H42.5312V28.7812H32.5312V38.7812ZM42.6875 9.09375V19.0938V9.09375ZM45.0312 17.7383H35.0312V22.2147L38.3698 25.1965L45.0312 17.7383ZM48.156 24.7188H58.156H48.156ZM38.7812 16.9062V26.9062V16.9062ZM46.5938 24.7188H56.5938H46.5938ZM32.5312 37.2188V47.2188H42.5312V37.2188H32.5312ZM32.5312 31.6992H42.5312V27.2613L39.2404 24.2838L32.5312 31.6992ZM43.4688 16.6055L38.5112 25.2901L53.4688 33.8285V16.6055H43.4688ZM43.4688 32.832H53.4688V15.4655L38.4489 24.1833L43.4688 32.832ZM34.0938 32.832L39.1136 24.1833L24.0938 15.4655V32.832H34.0938ZM34.0938 42.9043H24.0938V60.1419L39.0577 51.5853L34.0938 42.9043ZM38.3906 40.4473L43.3546 49.1282L43.3726 49.1179L43.3906 49.1075L38.3906 40.4473ZM39.1719 40.4473L34.1719 49.1075L34.1899 49.1179L34.2079 49.1282L39.1719 40.4473ZM43.4688 42.9043L38.5048 51.5853L53.4688 60.1419V42.9043H43.4688ZM14.7188 27.0625C14.7188 24.6176 15.69 22.2727 17.4189 20.5439L31.561 34.686C33.5829 32.6641 34.7188 29.9218 34.7188 27.0625H14.7188ZM17.4189 20.5439C19.1477 18.815 21.4926 17.8438 23.9375 17.8438V37.8438C26.7968 37.8438 29.5391 36.7079 31.561 34.686L17.4189 20.5439ZM23.9375 17.8438H14.5625V37.8438H23.9375V17.8438ZM14.5625 17.8438C17.0074 17.8438 19.3523 18.815 21.0811 20.5439L6.939 34.686C8.9609 36.7079 11.7032 37.8438 14.5625 37.8438V17.8438ZM21.0811 20.5439C22.81 22.2727 23.7812 24.6176 23.7812 27.0625H3.78125C3.78125 29.9218 4.91711 32.6641 6.939 34.686L21.0811 20.5439ZM23.7812 27.0625C23.7812 29.5074 22.81 31.8523 21.0811 33.5811L6.939 19.439C4.91711 21.4609 3.78125 24.2032 3.78125 27.0625H23.7812ZM21.0811 33.5811C19.3523 35.31 17.0074 36.2812 14.5625 36.2812V16.2812C11.7032 16.2812 8.9609 17.4171 6.939 19.439L21.0811 33.5811ZM14.5625 36.2812H23.9375V16.2812H14.5625V36.2812ZM23.9375 36.2812C21.4926 36.2812 19.1477 35.31 17.4189 33.5811L31.561 19.439C29.5391 17.4171 26.7968 16.2812 23.9375 16.2812V36.2812ZM17.4189 33.5811C15.69 31.8523 14.7188 29.5074 14.7188 27.0625H34.7188C34.7188 24.2032 33.5829 21.4609 31.561 19.439L17.4189 33.5811ZM23.9375 10.0312H14.5625V30.0312H23.9375V10.0312ZM14.5625 10.0312C11.7032 10.0312 8.9609 11.1671 6.939 13.189L21.0811 27.3311C19.3523 29.06 17.0074 30.0312 14.5625 30.0312V10.0312ZM6.939 13.189C4.91711 15.2109 3.78125 17.9532 3.78125 20.8125H23.7812C23.7812 23.2574 22.81 25.6023 21.0811 27.3311L6.939 13.189ZM3.78125 20.8125C3.78125 23.6718 4.91711 26.4141 6.939 28.436L21.0811 14.2939C22.81 16.0227 23.7812 18.3676 23.7812 20.8125H3.78125ZM6.939 28.436C8.9609 30.4579 11.7032 31.5938 14.5625 31.5938V11.5938C17.0074 11.5938 19.3523 12.565 21.0811 14.2939L6.939 28.436ZM14.5625 31.5938H23.9375V11.5938H14.5625V31.5938ZM23.9375 31.5938C26.7968 31.5938 29.5391 30.4579 31.561 28.436L17.4189 14.2939C19.1477 12.565 21.4926 11.5938 23.9375 11.5938V31.5938ZM31.561 28.436C33.5829 26.4141 34.7188 23.6718 34.7188 20.8125H14.7188C14.7188 18.3676 15.69 16.0227 17.4189 14.2939L31.561 28.436ZM34.7188 20.8125C34.7188 17.9532 33.5829 15.2109 31.561 13.189L17.4189 27.3311C15.69 25.6023 14.7188 23.2574 14.7188 20.8125H34.7188ZM31.561 13.189C29.5391 11.1671 26.7968 10.0312 23.9375 10.0312V30.0312C21.4926 30.0312 19.1477 29.06 17.4189 27.3311L31.561 13.189ZM35.0312 31.6992V44.25H55.0312V31.6992H35.0312ZM35.0313 44.2648C35.0289 42.6453 35.4531 41.0539 36.2612 39.6506L53.5928 49.6314C54.5379 47.9903 55.034 46.1292 55.0312 44.2352L35.0313 44.2648ZM36.2612 39.6506C37.0694 38.2473 38.2329 37.0816 39.6347 36.2709L49.6475 53.584C51.2869 52.6359 52.6477 51.2726 53.5928 49.6314L36.2612 39.6506ZM39.6347 36.2709C41.0365 35.4602 42.6271 35.033 44.2466 35.0324L44.254 55.0324C46.1479 55.0317 48.0082 54.5321 49.6475 53.584L39.6347 36.2709ZM44.2466 35.0324C45.866 35.0318 47.457 35.4578 48.8594 36.2675L38.8594 53.588C40.4995 54.5349 42.3601 55.0331 44.254 55.0324L44.2466 35.0324ZM48.8215 36.2457L43.7434 33.3434L33.8191 50.7074L38.8973 53.6098L48.8215 36.2457ZM33.8191 33.3434L28.741 36.2457L38.6652 53.6098L43.7434 50.7074L33.8191 33.3434ZM28.7031 36.2675C30.1055 35.4578 31.6965 35.0318 33.3159 35.0324L33.3085 55.0324C35.2024 55.0331 37.063 54.5349 38.7031 53.588L28.7031 36.2675ZM33.3159 35.0324C34.9354 35.033 36.526 35.4602 37.9278 36.2709L27.915 53.584C29.5543 54.5321 31.4146 55.0317 33.3085 55.0324L33.3159 35.0324ZM37.9278 36.2709C39.3296 37.0816 40.4931 38.2473 41.3013 39.6506L23.9697 49.6314C24.9148 51.2726 26.2756 52.6359 27.915 53.584L37.9278 36.2709ZM41.3013 39.6506C42.1094 41.0539 42.5336 42.6453 42.5312 44.2648L22.5313 44.2352C22.5285 46.1292 23.0246 47.9903 23.9697 49.6314L41.3013 39.6506ZM42.5312 44.25V38.7812H22.5312V44.25H42.5312ZM32.5312 28.7812H8.3125V48.7812H32.5312V28.7812ZM8.3125 28.7812C10.3431 28.7812 12.2905 29.5879 13.7263 31.0237L-0.415849 45.1658C1.89904 47.4807 5.03872 48.7812 8.3125 48.7812V28.7812ZM13.7263 31.0237C15.1621 32.4595 15.9688 34.4069 15.9688 36.4375H-4.03125C-4.03125 39.7113 -2.73075 42.851 -0.415849 45.1658L13.7263 31.0237ZM15.9688 36.4375V11.4375H-4.03125V36.4375H15.9688ZM15.9688 11.4375C15.9688 13.4681 15.1621 15.4155 13.7263 16.8513L-0.415849 2.70915C-2.73075 5.02405 -4.03125 8.16373 -4.03125 11.4375H15.9688ZM13.7263 16.8513C12.2905 18.2871 10.3431 19.0938 8.3125 19.0938V-0.90625C5.03874 -0.90625 1.89906 0.394246 -0.415849 2.70915L13.7263 16.8513ZM8.3125 19.0938H42.6875V-0.90625H8.3125V19.0938ZM42.6875 19.0938C40.6569 19.0938 38.7095 18.2871 37.2737 16.8513L51.4158 2.70915C49.1009 0.39425 45.9613 -0.90625 42.6875 -0.90625V19.0938ZM37.2737 16.8513C35.8379 15.4155 35.0312 13.4681 35.0312 11.4375H55.0312C55.0312 8.16372 53.7307 5.02404 51.4158 2.70915L37.2737 16.8513ZM35.0312 11.4375V17.7383H55.0312V11.4375H35.0312ZM38.3698 25.1965C38.3026 25.1365 38.2487 25.0628 38.2119 24.9805L56.4664 16.8091C55.3526 14.3209 53.7259 12.096 51.6927 10.28L38.3698 25.1965ZM38.2119 24.9805C38.175 24.8981 38.156 24.809 38.156 24.7188H58.156C58.156 21.9926 57.5802 19.2973 56.4664 16.8091L38.2119 24.9805ZM38.156 24.7188C38.156 24.6285 38.175 24.5393 38.2119 24.457L56.4664 32.6284C57.5802 30.1402 58.156 27.4449 58.156 24.7188H38.156ZM38.2119 24.457C38.2487 24.3747 38.3026 24.3011 38.3698 24.241L51.6927 39.1575C53.7259 37.3415 55.3526 35.1166 56.4664 32.6284L38.2119 24.457ZM38.7812 6.90625C35.2583 6.90625 31.8144 7.95094 28.8852 9.9082L39.9966 26.5376C39.6368 26.778 39.2139 26.9062 38.7812 26.9062V6.90625ZM28.8852 9.9082C25.9559 11.8655 23.6728 14.6474 22.3246 17.9022L40.8022 25.5559C40.6367 25.9556 40.3563 26.2972 39.9966 26.5376L28.8852 9.9082ZM22.3246 17.9022C20.9765 21.157 20.6237 24.7385 21.311 28.1938L40.9267 24.292C41.0111 24.7163 40.9678 25.1562 40.8022 25.5559L22.3246 17.9022ZM21.311 28.1938C21.9983 31.6491 23.6948 34.823 26.1859 37.3141L40.328 23.172C40.634 23.4779 40.8423 23.8677 40.9267 24.292L21.311 28.1938ZM26.1859 37.3141C28.677 39.8052 31.8509 41.5017 35.3062 42.189L39.208 22.5733C39.6323 22.6577 40.0221 22.866 40.328 23.172L26.1859 37.3141ZM35.3062 42.189C38.7615 42.8763 42.343 42.5235 45.5978 41.1754L37.9441 22.6978C38.3438 22.5322 38.7837 22.4889 39.208 22.5733L35.3062 42.189ZM45.5978 41.1754C48.8526 39.8272 51.6345 37.5441 53.5918 34.6148L36.9624 23.5034C37.2028 23.1437 37.5444 22.8633 37.9441 22.6978L45.5978 41.1754ZM53.5918 34.6148C55.5491 31.6856 56.5938 28.2417 56.5938 24.7188H36.5938C36.5938 24.2861 36.722 23.8632 36.9624 23.5034L53.5918 34.6148ZM56.5938 24.7188C56.5938 19.9946 54.7171 15.4639 51.3766 12.1234L37.2345 26.2655C36.8242 25.8553 36.5938 25.2989 36.5938 24.7188H56.5938ZM51.3766 12.1234C48.0361 8.78292 43.5054 6.90625 38.7812 6.90625V26.9062C38.2011 26.9062 37.6447 26.6758 37.2345 26.2655L51.3766 12.1234ZM42.5312 37.2188V31.6992H22.5312V37.2188H42.5312ZM39.2404 24.2838C39.3546 24.3872 39.4266 24.5291 39.4427 24.6823L19.551 26.7615C20.0475 31.5113 22.2807 35.9105 25.8221 39.1146L39.2404 24.2838ZM39.4427 24.6823C39.4587 24.8355 39.4175 24.9893 39.3271 25.114L23.1321 13.3785C20.3298 17.2457 19.0545 22.0116 19.551 26.7615L39.4427 24.6823ZM39.3271 25.114C39.2367 25.2388 39.1035 25.3257 38.9529 25.3582L34.7346 5.80815C30.0663 6.81542 25.9344 9.51137 23.1321 13.3785L39.3271 25.114ZM38.9529 25.3582C38.8023 25.3907 38.645 25.3665 38.5112 25.2901L48.4263 7.92085C44.2788 5.55324 39.4029 4.80087 34.7346 5.80815L38.9529 25.3582ZM53.4688 16.6055V11.4375H33.4688V16.6055H53.4688ZM53.4688 11.4375C53.4688 8.57815 52.3329 5.83589 50.311 3.81401L36.1689 17.9561C34.44 16.2273 33.4688 13.8824 33.4688 11.4375H53.4688ZM50.311 3.81401C48.2891 1.79213 45.5469 0.65625 42.6875 0.65625V20.6562C40.2425 20.6562 37.8977 19.685 36.1689 17.9561L50.311 3.81401ZM42.6875 0.65625H8.3125V20.6562H42.6875V0.65625ZM8.3125 0.65625C5.45313 0.65625 2.71088 1.79213 0.689005 3.81401L14.8311 17.9561C13.1023 19.685 10.7575 20.6562 8.3125 20.6562V0.65625ZM0.689005 3.81401C-1.33287 5.83588 -2.46875 8.57813 -2.46875 11.4375H17.5312C17.5312 13.8825 16.56 16.2273 14.8311 17.9561L0.689005 3.81401ZM-2.46875 11.4375V36.4375H17.5312V11.4375H-2.46875ZM-2.46875 36.4375C-2.46875 39.2969 -1.33287 42.0391 0.689005 44.061L14.8311 29.9189C16.56 31.6477 17.5312 33.9925 17.5312 36.4375H-2.46875ZM0.689005 44.061C2.71089 46.0829 5.45315 47.2188 8.3125 47.2188V27.2188C10.7574 27.2188 13.1023 28.19 14.8311 29.9189L0.689005 44.061ZM8.3125 47.2188H32.5312V27.2188H8.3125V47.2188ZM38.4489 24.1833C38.5498 24.1247 38.6645 24.0938 38.7812 24.0938V44.0938C42.1908 44.0938 45.5398 43.1923 48.4886 41.4808L38.4489 24.1833ZM38.7812 24.0938C38.898 24.0938 39.0127 24.1247 39.1136 24.1833L29.0739 41.4808C32.0227 43.1923 35.3717 44.0938 38.7812 44.0938V24.0938ZM24.0938 32.832V42.9043H44.0938V32.832H24.0938ZM39.0577 51.5853L43.3546 49.1282L33.4267 31.7663L29.1298 34.2233L39.0577 51.5853ZM43.3906 49.1075C41.9892 49.9166 40.3995 50.3426 38.7812 50.3426V30.3426C36.8887 30.3426 35.0295 30.8408 33.3906 31.787L43.3906 49.1075ZM38.7812 50.3426C37.163 50.3426 35.5733 49.9166 34.1719 49.1075L44.1719 31.787C42.533 30.8408 40.6738 30.3426 38.7812 30.3426V50.3426ZM34.2079 49.1282L38.5048 51.5853L48.4327 34.2233L44.1358 31.7663L34.2079 49.1282ZM53.4688 42.9043V32.832H33.4688V42.9043H53.4688Z" fill="#F7B002" mask="url(#path-2-inside-1_375_305)"/>
</svg>
