<svg width="24" height="24" viewBox="0 0 24 24" fill="none" xmlns="http://www.w3.org/2000/svg">
<path d="M12 0.434326C9.75024 0.434326 7.551 1.10146 5.68039 2.35136C3.80978 3.60126 2.35182 5.37779 1.49088 7.4563C0.629929 9.53481 0.404666 11.8219 0.843573 14.0285C1.28248 16.235 2.36584 18.2618 3.95667 19.8527C5.54749 21.4435 7.57432 22.5269 9.78085 22.9658C11.9874 23.4047 14.2745 23.1794 16.353 22.3185C18.4315 21.4575 20.2081 19.9995 21.458 18.1289C22.7079 16.2583 23.375 14.0591 23.375 11.8093C23.3718 8.79347 22.1724 5.90204 20.0398 3.7695C17.9073 1.63697 15.0159 0.437511 12 0.434326ZM12 21.4343C10.0964 21.4343 8.23546 20.8698 6.65264 19.8122C5.06982 18.7546 3.83616 17.2514 3.10766 15.4927C2.37917 13.7339 2.18856 11.7986 2.55995 9.93158C2.93133 8.06452 3.84802 6.3495 5.1941 5.00342C6.54018 3.65734 8.25519 2.74065 10.1223 2.36927C11.9893 1.99789 13.9246 2.18849 15.6833 2.91699C17.4421 3.64548 18.9453 4.87914 20.0029 6.46196C21.0605 8.04479 21.625 9.90568 21.625 11.8093C21.6221 14.3611 20.6071 16.8076 18.8027 18.612C16.9983 20.4164 14.5518 21.4314 12 21.4343ZM19 11.8093C19 12.0414 18.9078 12.264 18.7437 12.428C18.5796 12.5921 18.3571 12.6843 18.125 12.6843H12C11.7679 12.6843 11.5454 12.5921 11.3813 12.428C11.2172 12.264 11.125 12.0414 11.125 11.8093V5.68433C11.125 5.45226 11.2172 5.2297 11.3813 5.06561C11.5454 4.90151 11.7679 4.80933 12 4.80933C12.2321 4.80933 12.4546 4.90151 12.6187 5.06561C12.7828 5.2297 12.875 5.45226 12.875 5.68433V10.9343H18.125C18.3571 10.9343 18.5796 11.0265 18.7437 11.1906C18.9078 11.3547 19 11.5773 19 11.8093Z" fill="#F7F9FB"/>
</svg>
