<svg width="61" height="50" viewBox="0 0 61 50" fill="none" xmlns="http://www.w3.org/2000/svg">
<path d="M0 0V5H51.6154V45H18.7692V50H61V45H56.3077V0H0ZM9.38931 7.5C6.90258 7.50922 4.52011 8.56559 2.76128 10.4388C1.00244 12.312 0.00989229 14.8502 0 17.5C0 22.9975 4.23246 27.5 9.38931 27.5C11.8748 27.4895 14.2556 26.4323 16.0126 24.5591C17.7697 22.6859 18.7606 20.1485 18.7692 17.5C18.7692 12.0075 14.5415 7.5 9.38931 7.5ZM23.4615 10V15H35.1923V10H23.4615ZM39.8846 10V15H46.9231V10H39.8846ZM9.38931 12.5C12.0029 12.5 14.0769 14.7075 14.0769 17.5C14.0769 20.3 12.0053 22.5 9.38931 22.5C6.76161 22.5 4.69231 20.3 4.69231 17.5C4.69231 14.7075 6.76396 12.5 9.38931 12.5ZM23.4615 20V25H46.9231V20H23.4615ZM0 30V50H4.69231V35H11.7308V50H16.4231V36.645L21.2655 39.375C22.638 40.15 24.2874 40.1475 25.6575 39.375V39.38L33.9395 34.7125L31.7505 30.2875L23.4662 34.955L16.2025 30.87C15.189 30.2988 14.0598 30.0002 12.9132 30H0Z" fill="#00AD50"/>
</svg>
