<svg width="25" height="24" viewBox="0 0 25 24" fill="none" xmlns="http://www.w3.org/2000/svg">
<path d="M18.5072 0C19.3292 0 20.1033 0.157706 20.8297 0.473118C21.5562 0.78853 22.1918 1.21864 22.7366 1.76344C23.2814 2.30824 23.7115 2.94385 24.0269 3.67025C24.3423 4.39665 24.5 5.17085 24.5 5.99283V17.9785C24.5 18.8005 24.3423 19.5795 24.0269 20.3154C23.7115 21.0514 23.2814 21.6918 22.7366 22.2366C22.1918 22.7814 21.5562 23.2115 20.8297 23.5269C20.1033 23.8423 19.3292 24 18.5072 24H6.49283C5.67085 24 4.89665 23.8423 4.17025 23.5269C3.44385 23.2115 2.80824 22.7814 2.26344 22.2366C1.71864 21.6918 1.28853 21.0514 0.973118 20.3154C0.657706 19.5795 0.5 18.8005 0.5 17.9785V5.99283C0.5 5.17085 0.657706 4.39665 0.973118 3.67025C1.28853 2.94385 1.71864 2.30824 2.26344 1.76344C2.80824 1.21864 3.44385 0.78853 4.17025 0.473118C4.89665 0.157706 5.67085 0 6.49283 0H18.5072ZM16.9875 5.24731H14.4642C13.9671 5.24731 13.5084 5.33333 13.0878 5.50538C12.6673 5.67742 12.3041 5.90203 11.9982 6.17921C11.6924 6.45639 11.4486 6.77658 11.267 7.13978C11.0854 7.50299 10.9946 7.86619 10.9946 8.22939V9.7491H8.75806V12.7312H10.9946V18.7527H14.0054V12.7312H16.2419V9.7491H14.0054V9.00358C14.0054 8.75508 14.0962 8.56392 14.2778 8.43011C14.4594 8.2963 14.6171 8.22939 14.7509 8.22939H16.9875V5.24731Z" fill="#004AAD"/>
</svg>
