<svg width="24" height="24" viewBox="0 0 24 24" fill="none" xmlns="http://www.w3.org/2000/svg">
<path d="M7.10016 0.146973H16.9002C20.6335 0.146973 23.6668 3.18031 23.6668 6.91364V16.7136C23.6668 18.5083 22.9539 20.2294 21.6849 21.4984C20.4159 22.7674 18.6948 23.4803 16.9002 23.4803H7.10016C3.36683 23.4803 0.333496 20.447 0.333496 16.7136V6.91364C0.333496 5.11901 1.04641 3.39788 2.31541 2.12888C3.5844 0.859887 5.30553 0.146973 7.10016 0.146973ZM6.86683 2.48031C5.75292 2.48031 4.68463 2.9228 3.89698 3.71046C3.10933 4.49811 2.66683 5.5664 2.66683 6.68031V16.947C2.66683 19.2686 4.54516 21.147 6.86683 21.147H17.1335C18.2474 21.147 19.3157 20.7045 20.1033 19.9168C20.891 19.1292 21.3335 18.0609 21.3335 16.947V6.68031C21.3335 4.35864 19.4552 2.48031 17.1335 2.48031H6.86683ZM18.1252 4.23031C18.5119 4.23031 18.8829 4.38395 19.1564 4.65744C19.4299 4.93093 19.5835 5.30187 19.5835 5.68864C19.5835 6.07541 19.4299 6.44635 19.1564 6.71984C18.8829 6.99333 18.5119 7.14697 18.1252 7.14697C17.7384 7.14697 17.3675 6.99333 17.094 6.71984C16.8205 6.44635 16.6668 6.07541 16.6668 5.68864C16.6668 5.30187 16.8205 4.93093 17.094 4.65744C17.3675 4.38395 17.7384 4.23031 18.1252 4.23031ZM12.0002 5.98031C13.5473 5.98031 15.031 6.59489 16.125 7.68885C17.2189 8.78281 17.8335 10.2665 17.8335 11.8136C17.8335 13.3607 17.2189 14.8445 16.125 15.9384C15.031 17.0324 13.5473 17.647 12.0002 17.647C10.4531 17.647 8.96934 17.0324 7.87537 15.9384C6.78141 14.8445 6.16683 13.3607 6.16683 11.8136C6.16683 10.2665 6.78141 8.78281 7.87537 7.68885C8.96934 6.59489 10.4531 5.98031 12.0002 5.98031ZM12.0002 8.31364C11.0719 8.31364 10.1817 8.68239 9.52529 9.33877C8.86891 9.99514 8.50016 10.8854 8.50016 11.8136C8.50016 12.7419 8.86891 13.6321 9.52529 14.2885C10.1817 14.9449 11.0719 15.3136 12.0002 15.3136C12.9284 15.3136 13.8187 14.9449 14.475 14.2885C15.1314 13.6321 15.5002 12.7419 15.5002 11.8136C15.5002 10.8854 15.1314 9.99514 14.475 9.33877C13.8187 8.68239 12.9284 8.31364 12.0002 8.31364Z" fill="#F5F5F5"/>
</svg>
