<svg width="21" height="21" viewBox="0 0 21 21" fill="none" xmlns="http://www.w3.org/2000/svg">
<path fill-rule="evenodd" clip-rule="evenodd" d="M18 0.313721C18.9283 0.313721 19.8185 0.68247 20.4749 1.33885C21.1313 1.99522 21.5 2.88546 21.5 3.81372V17.8137C21.5 18.742 21.1313 19.6322 20.4749 20.2886C19.8185 20.945 18.9283 21.3137 18 21.3137H4C3.07174 21.3137 2.1815 20.945 1.52513 20.2886C0.868749 19.6322 0.5 18.742 0.5 17.8137V3.81372C0.5 2.88546 0.868749 1.99522 1.52513 1.33885C2.1815 0.68247 3.07174 0.313721 4 0.313721H18ZM6.33333 8.48039C6.02391 8.48039 5.72717 8.6033 5.50838 8.8221C5.28958 9.04089 5.16667 9.33763 5.16667 9.64705V15.4804C5.16667 15.7898 5.28958 16.0866 5.50838 16.3053C5.72717 16.5241 6.02391 16.6471 6.33333 16.6471C6.64275 16.6471 6.9395 16.5241 7.15829 16.3053C7.37708 16.0866 7.5 15.7898 7.5 15.4804V9.64705C7.5 9.33763 7.37708 9.04089 7.15829 8.8221C6.9395 8.6033 6.64275 8.48039 6.33333 8.48039ZM9.83333 7.31372C9.52391 7.31372 9.22717 7.43664 9.00838 7.65543C8.78958 7.87422 8.66667 8.17097 8.66667 8.48039V15.4804C8.66667 15.7898 8.78958 16.0866 9.00838 16.3053C9.22717 16.5241 9.52391 16.6471 9.83333 16.6471C10.1428 16.6471 10.4395 16.5241 10.6583 16.3053C10.8771 16.0866 11 15.7898 11 15.4804V11.2104C11.3558 10.8091 11.9567 10.3377 12.6252 10.0519C13.0137 9.88622 13.5982 9.81855 14.0042 9.94689C14.1389 9.98106 14.2588 10.058 14.346 10.1662C14.4067 10.2479 14.5 10.4299 14.5 10.8137V15.4804C14.5 15.7898 14.6229 16.0866 14.8417 16.3053C15.0605 16.5241 15.3572 16.6471 15.6667 16.6471C15.9761 16.6471 16.2728 16.5241 16.4916 16.3053C16.7104 16.0866 16.8333 15.7898 16.8333 15.4804V10.8137C16.8333 10.0321 16.635 9.33672 16.222 8.77905C15.842 8.27337 15.3101 7.90257 14.7042 7.72089C13.6518 7.39072 12.4863 7.57389 11.7082 7.90755C11.459 8.01471 11.2164 8.13624 10.9813 8.27155C10.9324 8.00274 10.7907 7.75962 10.5809 7.58458C10.3711 7.40954 10.1066 7.31368 9.83333 7.31372ZM6.33333 4.98039C6.02391 4.98039 5.72717 5.1033 5.50838 5.3221C5.28958 5.54089 5.16667 5.83763 5.16667 6.14705C5.16667 6.45647 5.28958 6.75322 5.50838 6.97201C5.72717 7.1908 6.02391 7.31372 6.33333 7.31372C6.64275 7.31372 6.9395 7.1908 7.15829 6.97201C7.37708 6.75322 7.5 6.45647 7.5 6.14705C7.5 5.83763 7.37708 5.54089 7.15829 5.3221C6.9395 5.1033 6.64275 4.98039 6.33333 4.98039Z" fill="#F5F5F5"/>
</svg>
