<svg width="25" height="24" viewBox="0 0 25 24" fill="none" xmlns="http://www.w3.org/2000/svg">
<path d="M18.5072 0C19.3292 0 20.1033 0.157706 20.8297 0.473118C21.5562 0.78853 22.1918 1.21864 22.7366 1.76344C23.2814 2.30824 23.7115 2.94385 24.0269 3.67025C24.3423 4.39665 24.5 5.17085 24.5 5.99283V17.9785C24.5 18.8005 24.3423 19.5795 24.0269 20.3154C23.7115 21.0514 23.2814 21.6918 22.7366 22.2366C22.1918 22.7814 21.5562 23.2115 20.8297 23.5269C20.1033 23.8423 19.3292 24 18.5072 24H6.49283C5.67085 24 4.89665 23.8423 4.17025 23.5269C3.44385 23.2115 2.80824 22.7814 2.26344 22.2366C1.71864 21.6918 1.28853 21.0514 0.973118 20.3154C0.657706 19.5795 0.5 18.8005 0.5 17.9785V5.99283C0.5 5.17085 0.657706 4.39665 0.973118 3.67025C1.28853 2.94385 1.71864 2.30824 2.26344 1.76344C2.80824 1.21864 3.44385 0.78853 4.17025 0.473118C4.89665 0.157706 5.67085 0 6.49283 0H18.5072ZM8.75806 9.00358H5.74731V18.7527H8.75806V9.00358ZM7.26702 8.22939C7.66846 8.22939 8.01732 8.08602 8.31362 7.79928C8.60992 7.51254 8.75806 7.1589 8.75806 6.73835C8.75806 6.3178 8.60992 5.96416 8.31362 5.67742C8.01732 5.39068 7.66846 5.24731 7.26702 5.24731C6.84648 5.24731 6.48805 5.39068 6.19176 5.67742C5.89546 5.96416 5.74731 6.3178 5.74731 6.73835C5.74731 7.1589 5.89546 7.51254 6.19176 7.79928C6.48805 8.08602 6.84648 8.22939 7.26702 8.22939ZM19.2527 13.1039C19.2527 12.4158 19.0615 11.7419 18.6792 11.0824C18.2969 10.4229 17.7999 9.92115 17.1882 9.57706C16.6338 9.27121 15.9887 9.10872 15.2527 9.08961C14.5167 9.07049 13.8524 9.19474 13.2599 9.46237V9.00358H10.2491V18.7527H13.2599V12.7885L14.4928 12.1864C14.6458 12.1099 14.856 12.0717 15.1237 12.0717C15.3913 12.0717 15.592 12.1195 15.7258 12.2151C15.8405 12.2724 15.9552 12.3967 16.0699 12.5878C16.1846 12.779 16.2419 12.951 16.2419 13.1039V18.7527H19.2527V13.1039Z" fill="#004AAD"/>
</svg>
