<svg width="28" height="29" viewBox="0 0 28 29" fill="none" xmlns="http://www.w3.org/2000/svg">
<path d="M9.09998 3.10555H18.9C22.6333 3.10555 25.6666 6.13888 25.6666 9.87221V19.6722C25.6666 21.4668 24.9537 23.188 23.6847 24.457C22.4157 25.726 20.6946 26.4389 18.9 26.4389H9.09998C5.36665 26.4389 2.33331 23.4055 2.33331 19.6722V9.87221C2.33331 8.07758 3.04623 6.35645 4.31522 5.08746C5.58422 3.81846 7.30535 3.10555 9.09998 3.10555ZM8.86665 5.43888C7.75274 5.43888 6.68445 5.88138 5.8968 6.66903C5.10915 7.45668 4.66665 8.52497 4.66665 9.63888V19.9055C4.66665 22.2272 6.54498 24.1055 8.86665 24.1055H19.1333C20.2472 24.1055 21.3155 23.663 22.1032 22.8754C22.8908 22.0877 23.3333 21.0195 23.3333 19.9055V9.63888C23.3333 7.31721 21.455 5.43888 19.1333 5.43888H8.86665ZM20.125 7.18888C20.5118 7.18888 20.8827 7.34252 21.1562 7.61601C21.4297 7.8895 21.5833 8.26044 21.5833 8.64721C21.5833 9.03399 21.4297 9.40492 21.1562 9.67841C20.8827 9.9519 20.5118 10.1055 20.125 10.1055C19.7382 10.1055 19.3673 9.9519 19.0938 9.67841C18.8203 9.40492 18.6666 9.03399 18.6666 8.64721C18.6666 8.26044 18.8203 7.8895 19.0938 7.61601C19.3673 7.34252 19.7382 7.18888 20.125 7.18888ZM14 8.93888C15.5471 8.93888 17.0308 9.55346 18.1248 10.6474C19.2187 11.7414 19.8333 13.2251 19.8333 14.7722C19.8333 16.3193 19.2187 17.803 18.1248 18.897C17.0308 19.991 15.5471 20.6055 14 20.6055C12.4529 20.6055 10.9692 19.991 9.87519 18.897C8.78123 17.803 8.16665 16.3193 8.16665 14.7722C8.16665 13.2251 8.78123 11.7414 9.87519 10.6474C10.9692 9.55346 12.4529 8.93888 14 8.93888ZM14 11.2722C13.0717 11.2722 12.1815 11.641 11.5251 12.2973C10.8687 12.9537 10.5 13.844 10.5 14.7722C10.5 15.7005 10.8687 16.5907 11.5251 17.2471C12.1815 17.9035 13.0717 18.2722 14 18.2722C14.9282 18.2722 15.8185 17.9035 16.4749 17.2471C17.1312 16.5907 17.5 15.7005 17.5 14.7722C17.5 13.844 17.1312 12.9537 16.4749 12.2973C15.8185 11.641 14.9282 11.2722 14 11.2722Z" fill="#F5F5F5"/>
</svg>
