<svg width="24" height="25" viewBox="0 0 24 25" fill="none" xmlns="http://www.w3.org/2000/svg">
<g clip-path="url(#clip0_1_50)">
<path fill-rule="evenodd" clip-rule="evenodd" d="M21 4.27222C21.9283 4.27222 22.8185 4.64097 23.4749 5.29734C24.1313 5.95372 24.5 6.84396 24.5 7.77222V21.7722C24.5 22.7005 24.1313 23.5907 23.4749 24.2471C22.8185 24.9035 21.9283 25.2722 21 25.2722H7C6.07174 25.2722 5.1815 24.9035 4.52513 24.2471C3.86875 23.5907 3.5 22.7005 3.5 21.7722V7.77222C3.5 6.84396 3.86875 5.95372 4.52513 5.29734C5.1815 4.64097 6.07174 4.27222 7 4.27222H21ZM9.33333 12.4389C9.02391 12.4389 8.72717 12.5618 8.50838 12.7806C8.28958 12.9994 8.16667 13.2961 8.16667 13.6055V19.4389C8.16667 19.7483 8.28958 20.045 8.50838 20.2638C8.72717 20.4826 9.02391 20.6055 9.33333 20.6055C9.64275 20.6055 9.9395 20.4826 10.1583 20.2638C10.3771 20.045 10.5 19.7483 10.5 19.4389V13.6055C10.5 13.2961 10.3771 12.9994 10.1583 12.7806C9.9395 12.5618 9.64275 12.4389 9.33333 12.4389ZM12.8333 11.2722C12.5239 11.2722 12.2272 11.3951 12.0084 11.6139C11.7896 11.8327 11.6667 12.1295 11.6667 12.4389V19.4389C11.6667 19.7483 11.7896 20.045 12.0084 20.2638C12.2272 20.4826 12.5239 20.6055 12.8333 20.6055C13.1428 20.6055 13.4395 20.4826 13.6583 20.2638C13.8771 20.045 14 19.7483 14 19.4389V15.1689C14.3558 14.7675 14.9567 14.2962 15.6252 14.0104C16.0137 13.8447 16.5982 13.777 17.0042 13.9054C17.1389 13.9396 17.2588 14.0165 17.346 14.1247C17.4067 14.2064 17.5 14.3884 17.5 14.7722V19.4389C17.5 19.7483 17.6229 20.045 17.8417 20.2638C18.0605 20.4826 18.3572 20.6055 18.6667 20.6055C18.9761 20.6055 19.2728 20.4826 19.4916 20.2638C19.7104 20.045 19.8333 19.7483 19.8333 19.4389V14.7722C19.8333 13.9905 19.635 13.2952 19.222 12.7375C18.842 12.2319 18.3101 11.8611 17.7042 11.6794C16.6518 11.3492 15.4863 11.5324 14.7082 11.866C14.459 11.9732 14.2164 12.0947 13.9813 12.23C13.9324 11.9612 13.7907 11.7181 13.5809 11.5431C13.3711 11.368 13.1066 11.2722 12.8333 11.2722ZM9.33333 8.93888C9.02391 8.93888 8.72717 9.0618 8.50838 9.28059C8.28958 9.49938 8.16667 9.79613 8.16667 10.1055C8.16667 10.415 8.28958 10.7117 8.50838 10.9305C8.72717 11.1493 9.02391 11.2722 9.33333 11.2722C9.64275 11.2722 9.9395 11.1493 10.1583 10.9305C10.3771 10.7117 10.5 10.415 10.5 10.1055C10.5 9.79613 10.3771 9.49938 10.1583 9.28059C9.9395 9.0618 9.64275 8.93888 9.33333 8.93888Z" fill="#F5F5F5"/>
</g>
<defs>
<clipPath id="clip0_1_50">
<rect width="24" height="24" fill="white" transform="translate(0 0.772217)"/>
</clipPath>
</defs>
</svg>
