<svg width="51" height="44" viewBox="0 0 51 44" fill="none" xmlns="http://www.w3.org/2000/svg">
<path fill-rule="evenodd" clip-rule="evenodd" d="M37.1667 6.66667H13.8333V0H10.5V6.66667H5.5C4.17392 6.66667 2.90215 7.19345 1.96447 8.13113C1.02678 9.06881 0.5 10.3406 0.5 11.6667L0.5 38.3333C0.5 39.6594 1.02678 40.9312 1.96447 41.8689C2.90215 42.8065 4.17392 43.3333 5.5 43.3333H45.5C46.8261 43.3333 48.0979 42.8065 49.0355 41.8689C49.9732 40.9312 50.5 39.6594 50.5 38.3333V11.6667C50.5 10.3406 49.9732 9.06881 49.0355 8.13113C48.0979 7.19345 46.8261 6.66667 45.5 6.66667H40.5V0H37.1667V6.66667ZM10.5 20C10.5 18.2319 11.2024 16.5362 12.4526 15.286C13.7029 14.0357 15.3986 13.3333 17.1667 13.3333C18.9348 13.3333 20.6305 14.0357 21.8807 15.286C23.131 16.5362 23.8333 18.2319 23.8333 20C23.8333 21.7681 23.131 23.4638 21.8807 24.714C20.6305 25.9643 18.9348 26.6667 17.1667 26.6667C15.3986 26.6667 13.7029 25.9643 12.4526 24.714C11.2024 23.4638 10.5 21.7681 10.5 20ZM8.44 35.3933C9.25031 33.7727 10.4959 32.4097 12.0372 31.4571C13.5786 30.5045 15.3547 29.9999 17.1667 29.9999C18.9786 29.9999 20.7548 30.5045 22.2961 31.4571C23.8374 32.4097 25.083 33.7727 25.8933 35.3933L26.9933 37.5867C27.1208 37.841 27.181 38.1238 27.1683 38.408C27.1555 38.6922 27.0703 38.9684 26.9206 39.2103C26.7709 39.4523 26.5617 39.6518 26.3131 39.7901C26.0644 39.9283 25.7845 40.0006 25.5 40H8.83333C8.54912 40 8.26963 39.9273 8.02142 39.7888C7.77322 39.6504 7.56455 39.4507 7.41524 39.2089C7.26593 38.9671 7.18094 38.6911 7.16836 38.4071C7.15577 38.1232 7.21601 37.8408 7.34333 37.5867L8.44 35.3933ZM30.5 20H40.5V16.6667H30.5V20ZM30.5 30H40.5V26.6667H30.5V30Z" fill="#28F455"/>
</svg>
