<svg width="41" height="51" viewBox="0 0 41 51" fill="none" xmlns="http://www.w3.org/2000/svg">
<path d="M7.42137 27.9538L1.59033 45.3169L8.827 42.9065L13.0737 49.244L18.0164 35.2067M33.5351 27.9538L39.3689 45.3169L32.1295 42.9065L27.8828 49.244L22.9401 35.2067M12.8218 4.64585C14.3926 4.83001 15.9445 4.18543 16.9249 2.94501C17.3507 2.40416 17.8937 1.96698 18.5129 1.66638C19.1322 1.36578 19.8116 1.20959 20.4999 1.20959C21.1883 1.20959 21.8676 1.36578 22.4869 1.66638C23.1061 1.96698 23.6491 2.40416 24.0749 2.94501C24.5565 3.55549 25.1865 4.03236 25.9048 4.33012C26.6231 4.62787 27.4058 4.73657 28.178 4.64585C28.8612 4.5649 29.5538 4.63993 30.2038 4.86528C30.8538 5.09064 31.4443 5.46045 31.9307 5.94691C32.4172 6.43336 32.787 7.02379 33.0124 7.67379C33.2377 8.32379 33.3127 9.01642 33.2318 9.6996C33.0476 11.2704 33.6922 12.825 34.9326 13.8054C35.473 14.2313 35.9097 14.7741 36.21 15.3931C36.5103 16.0121 36.6663 16.6911 36.6663 17.3791C36.6663 18.0671 36.5103 18.7461 36.21 19.3651C35.9097 19.9841 35.473 20.5269 34.9326 20.9527C34.3221 21.4343 33.8453 22.0643 33.5475 22.7826C33.2498 23.501 33.1411 24.2836 33.2318 25.0558C33.3127 25.739 33.2377 26.4317 33.0124 27.0817C32.787 27.7316 32.4172 28.3221 31.9307 28.8085C31.4443 29.295 30.8538 29.6648 30.2038 29.8902C29.5538 30.1155 28.8612 30.1905 28.178 30.1096C27.4053 30.0184 26.6222 30.1269 25.9033 30.4246C25.1845 30.7224 24.5541 31.1995 24.0722 31.8104C23.6464 32.3508 23.1035 32.7875 22.4846 33.0878C21.8656 33.3881 21.1865 33.5441 20.4986 33.5441C19.8106 33.5441 19.1316 33.3881 18.5126 33.0878C17.8936 32.7875 17.3508 32.3508 16.9249 31.8104C16.4433 31.1999 15.8133 30.7231 15.095 30.4253C14.3767 30.1276 13.5941 30.0189 12.8218 30.1096C12.1384 30.191 11.4455 30.1163 10.7951 29.8911C10.1448 29.666 9.55399 29.2962 9.06721 28.8097C8.58044 28.3232 8.21038 27.7326 7.98487 27.0824C7.75937 26.4322 7.68431 25.7393 7.76533 25.0558C7.85637 24.2838 7.74809 23.5013 7.45082 22.7831C7.15354 22.0648 6.67719 21.4346 6.06721 20.9527C5.52636 20.5269 5.08917 19.9839 4.78857 19.3647C4.48797 18.7455 4.33179 18.0661 4.33179 17.3777C4.33179 16.6894 4.48797 16.01 4.78857 15.3907C5.08917 14.7715 5.52636 14.2285 6.06721 13.8027C7.30762 12.825 7.95221 11.2704 7.76533 9.6996C7.68431 9.01617 7.75937 8.32326 7.98487 7.67304C8.21038 7.02282 8.58044 6.43223 9.06721 5.94572C9.55399 5.45921 10.1448 5.08946 10.7951 4.8643C11.4455 4.63915 12.1384 4.56446 12.8218 4.64585ZM25.9166 17.375C25.9166 18.8116 25.3459 20.1894 24.3301 21.2052C23.3143 22.221 21.9365 22.7917 20.4999 22.7917C19.0633 22.7917 17.6856 22.221 16.6698 21.2052C15.6539 20.1894 15.0832 18.8116 15.0832 17.375C15.0832 15.9384 15.6539 14.5607 16.6698 13.5449C17.6856 12.529 19.0633 11.9583 20.4999 11.9583C21.9365 11.9583 23.3143 12.529 24.3301 13.5449C25.3459 14.5607 25.9166 15.9384 25.9166 17.375Z" stroke="#F50A0A" stroke-width="2" stroke-linecap="round" stroke-linejoin="round"/>
</svg>
