<svg width="24" height="23" viewBox="0 0 24 23" fill="none" xmlns="http://www.w3.org/2000/svg">
<path d="M10.4649 1.11527C10.9481 -0.371755 13.0519 -0.371755 13.5349 1.11527L15.2613 6.42831C15.4774 7.09333 16.097 7.54358 16.7964 7.54358H22.3829C23.9464 7.54358 24.5965 9.54435 23.3316 10.4634L18.812 13.747C18.2463 14.1579 18.0095 14.8865 18.2256 15.5515L19.952 20.8646C20.4351 22.3516 18.7332 23.5882 17.4682 22.6692L12.9487 19.3855C12.383 18.9745 11.617 18.9745 11.0513 19.3855L6.53172 22.6692C5.26679 23.5882 3.56483 22.3516 4.04799 20.8646L5.77431 15.5515C5.99038 14.8865 5.75366 14.1579 5.18798 13.747L0.668426 10.4634C-0.59652 9.54435 0.0535778 7.54358 1.61712 7.54358H7.20359C7.90284 7.54358 8.52254 7.09333 8.73863 6.42831L10.4649 1.11527Z" fill="#0021F5"/>
</svg>
