<svg width="15" height="14" viewBox="0 0 15 14" fill="none" xmlns="http://www.w3.org/2000/svg">
<path d="M7.5 0C3.63306 0 0.5 3.13306 0.5 7C0.5 10.8669 3.63306 14 7.5 14C11.3669 14 14.5 10.8669 14.5 7C14.5 3.13306 11.3669 0 7.5 0ZM9.11169 9.88186L6.62218 8.07258C6.53468 8.00766 6.48387 7.90605 6.48387 7.79879V3.04839C6.48387 2.8621 6.63629 2.70968 6.82258 2.70968H8.17742C8.36371 2.70968 8.51613 2.8621 8.51613 3.04839V6.93508L10.3085 8.23911C10.4609 8.34919 10.4919 8.56089 10.3819 8.71331L9.58589 9.80847C9.47581 9.95806 9.26411 9.99193 9.11169 9.88186Z" fill="#004AAD"/>
</svg>
