<svg width="61" height="50" viewBox="0 0 61 50" fill="none" xmlns="http://www.w3.org/2000/svg">
<path d="M60.5 47.7273C60.5 48.33 60.2569 48.9081 59.8241 49.3343C59.3913 49.7606 58.8043 50 58.1923 50H2.80769C2.19565 50 1.60868 49.7606 1.17591 49.3343C0.743131 48.9081 0.5 48.33 0.5 47.7273C0.5 47.1245 0.743131 46.5464 1.17591 46.1202C1.60868 45.694 2.19565 45.4545 2.80769 45.4545H58.1923C58.8043 45.4545 59.3913 45.694 59.8241 46.1202C60.2569 46.5464 60.5 47.1245 60.5 47.7273ZM60.5 4.54545V36.3636C60.5 37.5692 60.0137 38.7253 59.1482 39.5778C58.2826 40.4302 57.1087 40.9091 55.8846 40.9091H5.11538C3.89131 40.9091 2.71737 40.4302 1.85181 39.5778C0.986262 38.7253 0.5 37.5692 0.5 36.3636V4.54545C0.5 3.33992 0.986262 2.18377 1.85181 1.33133C2.71737 0.478895 3.89131 0 5.11538 0H55.8846C57.1087 0 58.2826 0.478895 59.1482 1.33133C60.0137 2.18377 60.5 3.33992 60.5 4.54545ZM40.8846 20.4545C40.8845 20.0894 40.7951 19.7296 40.6238 19.4057C40.4526 19.0818 40.2047 18.8033 39.901 18.5937L28.3625 10.6392C28.0167 10.4007 27.6112 10.2601 27.1899 10.2328C26.7687 10.2055 26.3479 10.2926 25.9734 10.4844C25.5989 10.6763 25.285 10.9657 25.0659 11.3211C24.8468 11.6765 24.7309 12.0842 24.7308 12.5V28.4091C24.7309 28.8249 24.8468 29.2326 25.0659 29.588C25.285 29.9434 25.5989 30.2328 25.9734 30.4246C26.3479 30.6165 26.7687 30.7036 27.1899 30.6763C27.6112 30.649 28.0167 30.5084 28.3625 30.2699L39.901 22.3153C40.2047 22.1058 40.4526 21.8273 40.6238 21.5034C40.7951 21.1795 40.8845 20.8197 40.8846 20.4545Z" fill="#004AAD"/>
</svg>
